<svg viewBox="0 0 256 192" xmlns="http://www.w3.org/2000/svg"><defs><linearGradient x1="0%" y1="0%" x2="102%" y2="101%" id="a"><stop stop-color="#3023AE" offset="0%"/><stop stop-color="#C86DD7" offset="100%"/></linearGradient><linearGradient x1="50%" y1="0%" x2="50%" y2="100%" id="b"><stop stop-color="#FFF" stop-opacity="0" offset="0%"/><stop stop-color="#FFF" offset="100%"/></linearGradient></defs><g fill="none" fill-rule="evenodd"><path d="M70.4 172.504h-8.784v-19.008c0-4.68-2.448-8.928-7.272-8.928-4.752 0-7.56 4.248-7.56 8.928v19.008H38v-35.568h8.136l.648 4.32c1.872-3.6 5.976-4.896 9.36-4.896 4.248 0 8.496 1.728 10.512 6.624 3.168-5.04 7.272-6.48 11.88-6.48 10.08 0 15.048 6.192 15.048 16.848v19.152H84.8v-19.152c0-4.68-1.944-8.64-6.696-8.64s-7.704 4.104-7.704 8.784v19.008zm37.896-35.64v35.64h-8.784v-35.64h8.784zm32.472 25.344l5.904 5.76c-4.104 4.032-8.424 5.616-13.68 5.616-10.296 0-18.864-6.192-18.864-18.792 0-12.6 8.568-18.792 18.864-18.792 5.04 0 8.928 1.44 12.816 5.256l-5.544 5.832c-2.088-1.872-4.68-2.808-7.128-2.808-5.904 0-10.224 4.32-10.224 10.512 0 6.768 4.608 10.368 10.08 10.368 2.808 0 5.616-.792 7.776-2.952zm11.792-25.2h8.136l.648 4.104c2.736-4.392 6.408-5.04 10.008-5.04 3.672 0 7.2 1.44 9.144 3.384l-3.96 7.632c-1.8-1.512-3.456-2.304-6.336-2.304-4.608 0-8.856 2.448-8.856 9v18.72h-8.784v-35.496zm45.952-.72c11.304 0 18.576 8.352 18.576 18.504 0 10.224-6.984 18.504-18.504 18.504-11.52 0-18.432-8.28-18.432-18.504 0-10.152 7.056-18.504 18.36-18.504zm.072 7.992c-6.336 0-9.648 5.184-9.648 10.512 0 5.4 3.24 10.44 9.648 10.44 6.408 0 9.648-5.04 9.648-10.44 0-5.328-3.744-10.512-9.648-10.512z" fill="#2B1C38"/><path d="M95 64c0-20.254 6.673-43.03 21.984-44.055 16.943-1.133 42.69 21.643 42.69 44.055 0 42.667-64.674 42.667-64.674 0z" fill="url(#a)"/><path d="M107.251 52.067c9.165-25.178 19.956-27.665 37.117-.77 7.692 12.054-2.608 32.986-15.631 34.582-13.085 1.604-29.592-11.539-21.486-33.812z" fill="url(#b)" opacity=".3" style="mix-blend-mode:soft-light" transform="rotate(160 126.055 59.073)"/></g></svg>
